<svg width="252" height="277" viewBox="0 0 252 277" fill="none" xmlns="http://www.w3.org/2000/svg">
<rect width="252" height="277" rx="20" fill="#1A1A1A"/>
<path d="M189.75 18H62.25C31.184 18 6 43.184 6 74.25V201.75C6 232.816 31.184 258 62.25 258H189.75C220.816 258 246 232.816 246 201.75V74.25C246 43.184 220.816 18 189.75 18Z" fill="#1A1A1A"/>
<path d="M105.338 43.335L145.107 43.3125C154.118 59.1778 161.714 75.8981 168.192 93.0534C170.783 99.4266 173.402 105.801 175.504 112.374C178.65 122.003 182.617 131.316 185.625 141C191.535 161.383 196.757 181.981 202.006 202.557C203.963 210.752 206.674 218.719 208.438 226.962C205.656 227.906 202.859 228.818 200.082 229.79C196.962 230.825 193.65 230.721 190.418 231.01C185.79 231.48 181.143 231.783 176.509 232.197L165.35 224.168C164.841 220.463 164.92 216.677 164.252 212.987C162.355 201.157 159.38 189.541 155.995 178.084L93.9469 187.072C93.4837 189.672 93.0019 192.279 92.5313 194.887C90.4566 204.129 90.9788 213.704 90.4228 223.119L76.2497 232.246C75.3375 232.976 74.1478 232.576 73.1091 232.563C69.6056 232.197 66.0825 232.211 62.5922 231.77C59.0353 231.308 55.2272 231.969 51.9019 230.287C49.1194 228.935 46.2497 227.776 43.5 226.348C46.6669 210.641 50.8781 195.184 54.9825 179.719C60.0534 160.425 66.1219 141.435 72.3694 122.528C81.1219 95.1984 92.2416 68.6972 105.338 43.3331V43.335ZM122.572 99.0197C117.409 114.651 111.432 129.964 105.906 145.457L138.907 126.488C135.694 117.141 132.455 107.808 129.056 98.5369C128.409 96.9713 127.761 94.95 125.976 94.5084C123.854 94.7709 123.233 97.2609 122.572 99.0197Z" fill="#BF2223"/>
</svg>
