<svg width="24" height="24" viewBox="0 0 24 24" fill="none" xmlns="http://www.w3.org/2000/svg">
<path d="M9 22.5C9.55228 22.5 10 22.0523 10 21.5C10 20.9477 9.55228 20.5 9 20.5C8.44772 20.5 8 20.9477 8 21.5C8 22.0523 8.44772 22.5 9 22.5Z" stroke="white" stroke-width="2" stroke-linecap="round" stroke-linejoin="round"/>
<path d="M19 22.5C19.5523 22.5 20 22.0523 20 21.5C20 20.9477 19.5523 20.5 19 20.5C18.4477 20.5 18 20.9477 18 21.5C18 22.0523 18.4477 22.5 19 22.5Z" stroke="white" stroke-width="2" stroke-linecap="round" stroke-linejoin="round"/>
<path d="M1 1.5H5L7.68 15.7823C7.77144 16.2734 8.02191 16.7145 8.38755 17.0285C8.75318 17.3424 9.2107 17.5092 9.68 17.4996H19.4C19.8693 17.5092 20.3268 17.3424 20.6925 17.0285C21.0581 16.7145 21.3086 16.2734 21.4 15.7823L23 6.8332H6" stroke="white" stroke-width="2" stroke-linecap="round" stroke-linejoin="round"/>
</svg>
