<svg width="252" height="277" viewBox="0 0 252 277" fill="none" xmlns="http://www.w3.org/2000/svg">
<rect width="252" height="277" rx="20" fill="#1A1A1A"/>
<g clip-path="url(#clip0_162_22)">
<path d="M238 134.248V141.759L237.783 142.963C237.419 146.246 237.16 149.529 236.656 152.735C234.935 163.138 231.207 173.107 225.68 182.086C217.552 195.58 205.736 206.471 191.625 213.474C183.412 217.599 174.539 220.253 165.41 221.314C163.366 221.566 161.329 221.79 159.32 222.007H80.6049C80.2059 221.937 79.8419 221.825 79.4359 221.79C71.5429 221.313 63.7996 219.423 56.5739 216.211C40.7119 209.141 28.9029 197.724 21.1749 182.016C17.7778 175.057 15.5725 167.578 14.6509 159.889L13.9929 154.275V146.981C14.0629 146.582 14.1749 146.176 14.2099 145.777C14.6089 138.812 16.0299 131.994 18.5149 125.47C25.1859 107.935 36.8549 94.915 53.4029 86.459C61.8935 82.157 71.2015 79.7089 80.7099 79.277C85.4139 79.06 90.1179 79.277 94.7449 79.935C94.9886 79.9633 95.2355 79.9385 95.4687 79.8624C95.7019 79.7863 95.9158 79.6606 96.0959 79.494C102.711 72.5894 110.469 66.8798 119.028 62.617C127.287 58.4632 136.209 55.7862 145.39 54.707C147.581 54.455 149.765 54.231 151.914 54.014H158.62C159.061 54.084 159.53 54.161 159.936 54.196C163.289 54.595 166.607 54.854 169.925 55.435C180.096 57.185 189.868 60.937 198.583 66.481C212.004 74.8504 222.756 86.8792 229.572 101.152C233.653 109.538 236.278 118.582 237.335 127.843L237.993 134.262L238 134.248ZM112.728 85.717C112.875 85.899 112.91 86.011 112.98 86.011C117.572 88.342 121.982 91.044 126.14 94.103C126.392 94.285 127.05 94.215 127.379 94.033C138.754 86.669 151.151 84.156 164.423 86.522C177.436 88.895 188.048 95.489 196.14 106.066C205.289 118.022 208.789 131.553 206.276 146.568C204.561 156.634 200.585 165.706 193.844 173.259C181.524 187.077 166.096 192.803 147.945 190.395C136.787 188.897 127.127 183.976 119.14 175.772C108.892 165.272 98.5739 154.807 88.2979 144.307C86.9119 142.886 85.4209 141.794 83.4469 141.535C81.7942 141.306 80.1118 141.62 78.6526 142.429C77.1935 143.238 76.0363 144.499 75.3549 146.022C74.0389 148.794 74.2279 151.965 77.1049 154.842C88.5499 166.287 99.8899 177.844 111.342 189.296C113.309 191.263 115.423 193.09 117.649 194.728C126 200.888 135.443 204.318 145.649 205.704C153.671 206.761 161.616 206.544 169.491 204.717C184.548 201.287 197.015 193.489 206.822 181.421C214.849 171.622 219.943 159.753 221.515 147.184C222.526 139.849 222.33 132.398 220.934 125.127C218.638 113.276 213.717 102.671 205.807 93.627C190.715 76.379 171.717 68.686 149.114 70.401C140.474 71.1309 132.08 73.6506 124.467 77.8C120.285 79.9959 116.36 82.6488 112.763 85.71L112.728 85.717ZM107.226 206.033C106.897 205.739 106.603 205.452 106.281 205.158C101.612 200.671 96.9079 196.191 92.2809 191.634C91.9051 191.217 91.443 190.888 90.9268 190.668C90.4107 190.448 89.8528 190.343 89.2919 190.36C84.5879 190.472 79.9189 190.507 75.2919 189.45C52.3249 184.165 38.9759 158.755 47.4389 136.404C54.1099 118.792 72.5969 108.075 90.8249 111.358C98.9939 112.856 106.176 116.391 112.077 122.551C119.259 130.097 126.623 137.391 133.917 144.867C135.555 146.547 137.452 147.345 139.748 147.016C142.667 146.575 145.033 145.154 146.09 142.2C147.147 139.281 146.636 136.551 144.487 134.325C136.864 126.485 129.43 118.428 121.52 110.917C106.134 96.336 88.0179 91.996 67.9629 98.191C41.0199 106.542 25.2349 134.829 31.3949 162.759C37.0089 188.246 58.9189 206.075 84.5179 206.11H105.994C106.323 206.11 106.687 206.075 107.233 206.04L107.226 206.033Z" fill="#DA1F26"/>
</g>
<defs>
<clipPath id="clip0_162_22">
<rect width="224" height="224" fill="white" transform="translate(14 26)"/>
</clipPath>
</defs>
</svg>
