<svg width="24" height="22" viewBox="0 0 24 22" fill="none" xmlns="http://www.w3.org/2000/svg">
<path d="M21.3036 3.17974C20.766 2.64721 20.1278 2.22477 19.4253 1.93656C18.7228 1.64834 17.9699 1.5 17.2095 1.5C16.4491 1.5 15.6961 1.64834 14.9936 1.93656C14.2912 2.22477 13.6529 2.64721 13.1153 3.17974L11.9997 4.2844L10.8841 3.17974C9.79827 2.10458 8.32556 1.50056 6.78997 1.50056C5.25437 1.50056 3.78167 2.10458 2.69584 3.17974C1.61001 4.2549 1 5.71313 1 7.23364C1 8.75414 1.61001 10.2124 2.69584 11.2875L3.81147 12.3922L11.9997 20.5L20.188 12.3922L21.3036 11.2875C21.8414 10.7553 22.268 10.1233 22.5591 9.4277C22.8502 8.73212 23 7.98657 23 7.23364C23 6.48071 22.8502 5.73516 22.5591 5.03958C22.268 4.34399 21.8414 3.71201 21.3036 3.17974Z" stroke="white" stroke-width="2" stroke-linecap="round" stroke-linejoin="round"/>
</svg>
