<svg width="62" height="62" viewBox="0 0 62 62" fill="none" xmlns="http://www.w3.org/2000/svg">
<g filter="url(#filter0_d_1_761)">
<circle cx="31" cy="27" r="17" fill="white"/>
</g>
<path d="M30.9983 22.377C29.7719 22.377 28.5958 22.8642 27.7286 23.7314C26.8614 24.5985 26.3743 25.7747 26.3743 27.001C26.3743 28.2274 26.8614 29.4035 27.7286 30.2707C28.5958 31.1378 29.7719 31.625 30.9983 31.625C32.2246 31.625 33.4008 31.1378 34.2679 30.2707C35.1351 29.4035 35.6223 28.2274 35.6223 27.001C35.6223 25.7747 35.1351 24.5985 34.2679 23.7314C33.4008 22.8642 32.2246 22.377 30.9983 22.377ZM30.9983 30.004C30.6038 30.004 30.2131 29.9263 29.8487 29.7753C29.4842 29.6244 29.1531 29.4031 28.8741 29.1242C28.5952 28.8452 28.3739 28.5141 28.2229 28.1496C28.072 27.7851 27.9943 27.3945 27.9943 27C27.9943 26.6055 28.072 26.2149 28.2229 25.8504C28.3739 25.486 28.5952 25.1548 28.8741 24.8759C29.1531 24.5969 29.4842 24.3756 29.8487 24.2247C30.2131 24.0737 30.6038 23.996 30.9983 23.996C31.795 23.996 32.5591 24.3125 33.1224 24.8759C33.6858 25.4392 34.0023 26.2033 34.0023 27C34.0023 27.7967 33.6858 28.5608 33.1224 29.1242C32.5591 29.6875 31.795 30.004 30.9983 30.004Z" fill="#1A1A1A"/>
<path d="M35.8053 23.285C36.4007 23.285 36.8833 22.8024 36.8833 22.207C36.8833 21.6116 36.4007 21.129 35.8053 21.129C35.2099 21.129 34.7273 21.6116 34.7273 22.207C34.7273 22.8024 35.2099 23.285 35.8053 23.285Z" fill="#1A1A1A"/>
<path d="M39.5322 21.111C39.3007 20.5132 38.947 19.9703 38.4936 19.5171C38.0402 19.0638 37.4971 18.7103 36.8992 18.479C36.1996 18.2164 35.4604 18.0743 34.7132 18.059C33.7502 18.017 33.4452 18.005 31.0032 18.005C28.5612 18.005 28.2482 18.005 27.2932 18.059C26.5466 18.0736 25.808 18.2156 25.1092 18.479C24.5112 18.71 23.968 19.0635 23.5146 19.5167C23.0611 19.97 22.7074 20.513 22.4762 21.111C22.2135 21.8106 22.0718 22.5498 22.0572 23.297C22.0142 24.259 22.0012 24.564 22.0012 27.007C22.0012 29.449 22.0012 29.76 22.0572 30.717C22.0722 31.465 22.2132 32.203 22.4762 32.904C22.7081 33.5018 23.0621 34.0446 23.5157 34.4978C23.9692 34.951 24.5123 35.3046 25.1102 35.536C25.8077 35.8092 26.5466 35.9614 27.2952 35.986C28.2582 36.028 28.5632 36.041 31.0052 36.041C33.4472 36.041 33.7602 36.041 34.7152 35.986C35.4623 35.9708 36.2015 35.8291 36.9012 35.567C37.499 35.3352 38.0418 34.9813 38.4952 34.528C38.9485 34.0746 39.3024 33.5318 39.5342 32.934C39.7972 32.234 39.9382 31.496 39.9532 30.748C39.9962 29.786 40.0092 29.481 40.0092 27.038C40.0092 24.595 40.0092 24.285 39.9532 23.328C39.9416 22.5703 39.7992 21.8203 39.5322 21.111ZM38.3142 30.643C38.3078 31.2193 38.2026 31.7902 38.0032 32.331C37.853 32.7199 37.6231 33.073 37.3283 33.3677C37.0334 33.6624 36.6802 33.8921 36.2912 34.042C35.7564 34.2405 35.1916 34.3456 34.6212 34.353C33.6712 34.397 33.4032 34.408 30.9672 34.408C28.5292 34.408 28.2802 34.408 27.3122 34.353C26.7421 34.346 26.1775 34.2408 25.6432 34.042C25.2529 33.893 24.8982 33.6637 24.6021 33.369C24.306 33.0742 24.0751 32.7206 23.9242 32.331C23.7277 31.7961 23.6225 31.2318 23.6132 30.662C23.5702 29.712 23.5602 29.444 23.5602 27.008C23.5602 24.571 23.5602 24.322 23.6132 23.353C23.6197 22.777 23.7249 22.2064 23.9242 21.666C24.2292 20.877 24.8542 20.256 25.6432 19.954C26.1778 19.7561 26.7422 19.651 27.3122 19.643C28.2632 19.6 28.5302 19.588 30.9672 19.588C33.4042 19.588 33.6542 19.588 34.6212 19.643C35.1916 19.6499 35.7566 19.7551 36.2912 19.954C36.6801 20.1043 37.0334 20.3342 37.3282 20.629C37.623 20.9239 37.8529 21.2771 38.0032 21.666C38.1998 22.201 38.3049 22.7652 38.3142 23.335C38.3572 24.286 38.3682 24.553 38.3682 26.99C38.3682 29.426 38.3682 29.688 38.3252 30.644L38.3142 30.643Z" fill="#1A1A1A"/>
<defs>
<filter id="filter0_d_1_761" x="0" y="0" width="62" height="62" filterUnits="userSpaceOnUse" color-interpolation-filters="sRGB">
<feFlood flood-opacity="0" result="BackgroundImageFix"/>
<feColorMatrix in="SourceAlpha" type="matrix" values="0 0 0 0 0 0 0 0 0 0 0 0 0 0 0 0 0 0 127 0" result="hardAlpha"/>
<feOffset dy="4"/>
<feGaussianBlur stdDeviation="7"/>
<feColorMatrix type="matrix" values="0 0 0 0 0 0 0 0 0 0 0 0 0 0 0 0 0 0 0.15 0"/>
<feBlend mode="normal" in2="BackgroundImageFix" result="effect1_dropShadow_1_761"/>
<feBlend mode="normal" in="SourceGraphic" in2="effect1_dropShadow_1_761" result="shape"/>
</filter>
</defs>
</svg>
