<svg width="251" height="277" viewBox="0 0 251 277" fill="none" xmlns="http://www.w3.org/2000/svg">
<rect width="251" height="277" rx="20" fill="#1A1A1A"/>
<path d="M145 77.0501L96.4499 94.2501C93.6788 95.2224 91.2541 96.9867 89.4765 99.3243C87.6988 101.662 86.6465 104.47 86.4499 107.4V173.6C86.2662 175.799 85.5277 177.916 84.3035 179.752C83.0793 181.589 81.4094 183.085 79.4499 184.1L57.8499 194.1C56.7716 194.455 55.6247 194.55 54.5028 194.377C53.3809 194.204 52.3158 193.768 51.3944 193.105C50.473 192.442 49.7215 191.57 49.201 190.562C48.6806 189.553 48.4061 188.435 48.3999 187.3V91.6001C49.4228 88.1327 51.1495 84.9135 53.4723 82.1434C55.7951 79.3733 58.664 77.1118 61.8999 75.5001L122.7 41.2001C134.6 38.6501 143.55 43.0001 145 55.1001V77.0501Z" fill="#EB3C00" stroke="#EB3C00" stroke-width="5" stroke-linecap="round" stroke-linejoin="round"/>
<path d="M133.75 41.05C136.893 41.8598 139.688 43.6669 141.717 46.2002C143.745 48.7335 144.897 51.8563 145 55.1V218C144.856 221.125 144.003 224.177 142.504 226.923C141.005 229.67 138.901 232.038 136.35 233.85L190.65 218.45C193.277 217.04 195.6 215.127 197.488 212.819C199.375 210.511 200.79 207.854 201.65 205V73.7001C201.687 69.9606 200.457 66.3188 198.16 63.3679C195.863 60.417 192.634 58.3311 189 57.45L133.75 41.05Z" fill="#EB3C00" stroke="#EB3C00" stroke-width="5" stroke-linecap="round" stroke-linejoin="round"/>
<path d="M117.55 231.5C126.3 235.7 129.1 236.5 136.3 234C138.869 232.168 140.987 229.775 142.494 227.003C144.002 224.231 144.858 221.152 145 218V193.5H85.9C77.85 196.25 73.05 204.85 82.05 211.3L117.55 231.5Z" fill="#EB3C00" stroke="#EB3C00" stroke-width="5" stroke-linecap="round" stroke-linejoin="round"/>
</svg>
