<svg width="12" height="12" viewBox="0 0 12 12" fill="none" xmlns="http://www.w3.org/2000/svg">
<path d="M-2.09843 6.90925C-2.03705 6.91921 -1.97494 6.9238 -1.91279 6.923L8.66942 6.923L8.43867 7.03032C8.21312 7.13707 8.00793 7.28237 7.83229 7.45962L4.86477 10.4271C4.47394 10.8002 4.40828 11.4004 4.70915 11.8492C5.05933 12.3274 5.73088 12.4312 6.20914 12.0811C6.24778 12.0528 6.2845 12.0219 6.31902 11.9887L11.6852 6.62249C12.1046 6.20359 12.105 5.52406 11.6861 5.10469C11.6858 5.10442 11.6855 5.10412 11.6852 5.10385L6.31902 -0.262363C5.89931 -0.680895 5.21978 -0.679956 4.80122 -0.260251C4.76828 -0.227215 4.73753 -0.192067 4.70915 -0.15504C4.40828 0.293743 4.47394 0.893921 4.86477 1.26701L7.82692 4.23989C7.98439 4.39752 8.16543 4.5297 8.36354 4.63162L8.68552 4.77651L-1.85373 4.77651C-2.40199 4.75615 -2.883 5.13913 -2.986 5.67804C-3.08088 6.26312 -2.68351 6.81433 -2.09843 6.90925Z" fill="white"/>
</svg>
