<svg width="62" height="62" viewBox="0 0 62 62" fill="none" xmlns="http://www.w3.org/2000/svg">
<g filter="url(#filter0_d_1_754)">
<circle cx="31" cy="27" r="17" fill="white"/>
</g>
<path d="M40.5783 21.855C40.7183 21.39 40.5783 21.049 39.9163 21.049H37.7233C37.1653 21.049 36.9103 21.344 36.7703 21.668C36.7703 21.668 35.6553 24.387 34.0753 26.15C33.5653 26.663 33.3323 26.825 33.0543 26.825C32.9153 26.825 32.7133 26.663 32.7133 26.198V21.855C32.7133 21.297 32.5523 21.049 32.0873 21.049H28.6413C28.2933 21.049 28.0833 21.307 28.0833 21.553C28.0833 22.081 28.8733 22.203 28.9543 23.691V26.919C28.9543 27.626 28.8273 27.755 28.5473 27.755C27.8043 27.755 25.9963 25.026 24.9233 21.902C24.7143 21.295 24.5033 21.05 23.9433 21.05H21.7513C21.1243 21.05 20.9993 21.345 20.9993 21.669C20.9993 22.251 21.7423 25.131 24.4603 28.94C26.2723 31.541 28.8233 32.951 31.1473 32.951C32.5403 32.951 32.7123 32.638 32.7123 32.098V30.132C32.7123 29.506 32.8453 29.38 33.2863 29.38C33.6103 29.38 34.1683 29.544 35.4693 30.797C36.9553 32.283 37.2013 32.95 38.0363 32.95H40.2283C40.8543 32.95 41.1673 32.637 40.9873 32.019C40.7903 31.404 40.0803 30.509 39.1383 29.45C38.6263 28.846 37.8613 28.196 37.6283 27.871C37.3033 27.452 37.3973 27.267 37.6283 26.895C37.6293 26.896 40.3003 23.134 40.5783 21.855Z" fill="#1A1A1A"/>
<defs>
<filter id="filter0_d_1_754" x="0" y="0" width="62" height="62" filterUnits="userSpaceOnUse" color-interpolation-filters="sRGB">
<feFlood flood-opacity="0" result="BackgroundImageFix"/>
<feColorMatrix in="SourceAlpha" type="matrix" values="0 0 0 0 0 0 0 0 0 0 0 0 0 0 0 0 0 0 127 0" result="hardAlpha"/>
<feOffset dy="4"/>
<feGaussianBlur stdDeviation="7"/>
<feColorMatrix type="matrix" values="0 0 0 0 0 0 0 0 0 0 0 0 0 0 0 0 0 0 0.15 0"/>
<feBlend mode="normal" in2="BackgroundImageFix" result="effect1_dropShadow_1_754"/>
<feBlend mode="normal" in="SourceGraphic" in2="effect1_dropShadow_1_754" result="shape"/>
</filter>
</defs>
</svg>
